<svg width="70" height="60" viewBox="0 0 70 60" fill="none" xmlns="http://www.w3.org/2000/svg">
<g clip-path="url(#clip0_65_1705)">
<path fill-rule="evenodd" clip-rule="evenodd" d="M32.8661 1.41521C33.8371 0.651435 35.2258 0.640202 36.2758 1.39274C36.2758 1.39274 68.95 22.4639 69.7403 22.9806C69.7403 25.0698 69.5032 30.6857 69.3339 31.4607C68.9161 33.651 68.2726 35.7626 67.4484 37.7731C67.1774 38.4807 66.8613 39.1771 66.5226 39.8623C65.5742 41.8279 64.4339 43.6924 63.1242 45.4334C62.6726 46.0399 62.2097 46.6128 61.7242 47.1856C58.7774 50.6675 55.1419 53.5654 51.0323 55.6657C50.3323 56.0252 49.621 56.3733 48.8758 56.6878C47.7242 57.1821 46.5274 57.6313 45.3081 58.002C44.5629 58.2266 43.829 58.44 43.0726 58.6197C43.05 58.6197 43.0274 58.631 43.0048 58.631C42.2936 58.7994 41.5597 58.9454 40.8371 59.0578C40.5324 59.1251 40.2163 59.1701 39.9003 59.215C39.1551 59.3161 38.4097 59.3947 37.6419 59.4509C37.2242 59.4846 36.8065 59.507 36.3887 59.5183C36.129 59.5407 35.8806 59.5407 35.621 59.5407C35.2371 59.552 34.8532 59.552 34.4694 59.5407C34.3565 59.5407 34.2435 59.5407 34.1306 59.5295C33.8823 59.5295 33.6226 59.5183 33.3742 59.507C32.979 59.4958 32.5952 59.4734 32.2113 59.4397C31.7032 59.406 31.2065 59.3498 30.7097 59.2824C29.7161 59.1701 28.7339 59.0016 27.7742 58.7882C27.0177 58.6422 26.2839 58.4625 25.5387 58.2491C23.5177 57.6875 21.5758 56.9462 19.7242 56.0364C18.9903 55.6882 18.2677 55.3288 17.579 54.9132C13.9661 52.8465 10.771 50.1621 8.12903 47.0059C7.63226 46.433 7.16936 45.8377 6.72903 45.2312C6.08549 44.3663 5.49839 43.4677 4.93387 42.5355C4.48226 41.7829 4.05323 41.0079 3.64678 40.1992C3.55645 40.0195 3.46613 39.8398 3.37581 39.6489C3.04839 38.9637 2.74355 38.2786 2.47258 37.5709C1.93065 36.2456 1.49032 34.8753 1.12903 33.4713C0.937098 32.7637 0.756453 32.0336 0.632259 31.2923V31.2698C0.609679 31.1687 0.598388 31.0789 0.587098 30.989C0.462905 30.3375 0.349957 25.7662 0.30484 23.677C0.970969 23.2727 32.8661 1.41521 32.8661 1.41521ZM27.9661 56.5418C28.3613 56.6317 28.7565 56.7103 29.1629 56.7889C30.0436 56.9462 30.9581 57.0697 31.8726 57.1483C31.3871 55.0255 30.4839 53.0599 29.2532 51.3639C28.7565 50.6675 28.2032 50.0161 27.5935 49.4208C26.1258 47.9494 24.3758 46.77 22.4226 45.9613C21.7226 45.6693 21.0113 45.4221 20.2774 45.2424C18.9226 44.8942 17.5 44.7258 16.0323 44.7482C13.9661 44.7819 11.9903 45.2088 10.2065 45.9613C12.4306 48.5447 15.05 50.7574 17.9629 52.5208C18.6403 52.9476 19.329 53.3407 20.0403 53.6889C21.8468 54.6324 23.7774 55.3962 25.7645 55.9802C26.4871 56.1936 27.2097 56.3846 27.9661 56.5418ZM37.1339 57.227C37.9016 57.1933 38.6581 57.1147 39.4032 57.0023C39.7984 56.9574 40.2048 56.89 40.6 56.8226C40.3177 54.857 39.7871 52.9701 39.0532 51.1842C38.7371 50.3867 38.3645 49.6229 37.9581 48.8816C36.8968 46.9048 35.5758 45.0964 34.0177 43.5014C33.4984 42.9623 32.9452 42.4344 32.3694 41.9402C30.7887 40.5699 29.0161 39.3905 27.1081 38.4695C26.4081 38.1325 25.6968 37.818 24.9629 37.5485C22.1516 36.4814 19.0806 35.9198 15.8742 35.976C12.1032 36.0434 8.53549 36.9644 5.36291 38.5481C5.65645 39.1771 5.98387 39.8173 6.32258 40.4239C6.78549 41.2775 7.30484 42.1199 7.86936 42.9286C8.14032 43.333 8.43387 43.7486 8.73871 44.1417C10.9516 43.1308 13.4016 42.5467 15.9871 42.5018C17.8161 42.4681 19.5887 42.704 21.2597 43.1982C22.0048 43.3891 22.7161 43.6362 23.4161 43.9395C25.3355 44.7482 27.0968 45.8939 28.621 47.2755C29.2081 47.8146 29.7726 48.3874 30.2806 49.0164C32.2339 51.3414 33.6226 54.1719 34.1984 57.2944C34.1984 57.2944 35.1694 57.3056 35.5871 57.2944C35.9258 57.2944 36.2758 57.2831 36.6145 57.2607C36.7292 57.2607 36.849 57.2504 36.9669 57.2402C37.0233 57.2354 37.0792 57.2306 37.1339 57.227ZM45.3645 55.6208C46.471 55.2502 47.5323 54.8458 48.571 54.3628V54.3516C48.029 51.2403 47.0581 48.2863 45.6807 45.5457C45.3645 44.8718 45.0032 44.2091 44.6194 43.5688C43.5129 41.6594 42.2032 39.8735 40.7242 38.2336C40.2161 37.6496 39.6742 37.088 39.1097 36.5488C37.4952 34.9764 35.7226 33.5836 33.8145 32.3818C33.1258 31.9437 32.4145 31.5281 31.6806 31.135C30.7097 30.6183 29.7048 30.1466 28.6661 29.731C26.7242 28.9448 24.6806 28.3383 22.5694 27.9227C20.3565 27.4846 18.0645 27.2712 15.7161 27.3161C13.7629 27.3498 11.8548 27.552 10.0032 27.9227C7.4629 28.4056 5.04678 29.1919 2.75484 30.2365C2.78871 30.506 2.83387 30.7644 2.89032 31.0227C3.02581 31.7752 3.19516 32.5166 3.39839 33.2579C3.70323 34.3586 4.06452 35.4369 4.47097 36.4814C7.91452 34.7854 11.7532 33.8082 15.829 33.7296C19.6113 33.6622 23.2242 34.3923 26.521 35.7401C27.2548 36.0322 27.9774 36.3691 28.6661 36.7285C30.5855 37.7282 32.3581 38.9412 33.9613 40.3452C34.5371 40.8282 35.079 41.3449 35.5871 41.884C37.1226 43.4565 38.4548 45.1975 39.5387 47.0957C39.9452 47.7697 40.3065 48.4773 40.6339 49.1849C41.6952 51.4313 42.429 53.8349 42.8129 56.3509C42.9032 56.3396 43.0048 56.3172 43.0952 56.2947C43.8629 56.0925 44.6306 55.8791 45.3645 55.6208ZM47.8145 44.7594C49.1242 47.4439 50.0952 50.3081 50.6823 53.3183C54.1484 51.4313 57.2419 48.9378 59.7935 45.9838C57.479 44.7482 54.8258 44.0743 52.0258 44.1192C50.5694 44.1529 49.1581 44.3663 47.8145 44.7594ZM51.9919 41.8728C55.3452 41.8166 58.5065 42.6703 61.2274 44.2091C62.5484 42.4794 63.6774 40.6036 64.6145 38.638C60.8661 36.4702 56.4968 35.2684 51.8677 35.3582C48.6726 35.4144 45.6242 36.0659 42.8468 37.2452C44.3258 38.9412 45.6355 40.7833 46.7419 42.7489C48.4016 42.2098 50.1629 41.9065 51.9919 41.8728ZM51.8339 33.1118C56.8016 33.022 61.4871 34.28 65.5065 36.5713C66.2968 34.572 66.8952 32.4716 67.2677 30.2926C65.371 29.3267 63.3726 28.5292 61.2952 27.9451C58.2581 27.0803 55.0403 26.6422 51.721 26.6984C48.8081 26.7545 45.9855 27.1814 43.3097 27.9451C40.6903 28.6752 38.2177 29.7422 35.9145 31.0789C37.8226 32.3705 39.6065 33.8419 41.221 35.4818C44.4726 34.0104 48.0516 33.1792 51.8339 33.1118ZM34.8594 23.8112C37.8094 23.8112 40.2008 21.4322 40.2008 18.4975C40.2008 15.5628 37.8094 13.1837 34.8594 13.1837C31.9095 13.1837 29.5181 15.5628 29.5181 18.4975C29.5181 21.4322 31.9095 23.8112 34.8594 23.8112Z" fill="#2D2A31"/>
</g>
<defs>
<clipPath id="clip0_65_1705">
<rect width="70" height="59.8889" fill="white"/>
</clipPath>
</defs>
</svg>
